# xmcd CD database file
#
# Track frame offsets:
#	150
#	19460
#	41452
#	62561
#	81897
#	99573
#	120472
#	138448
#	156083
#	176763
#	197768
#	220346
#	243727
#	259195
#
# Disc length: 3718 seconds
#
# Revision: 2
# Processed by: cddbd v1.5.2PL0 Copyright (c) Steve Scherf et al.
# Submitted via: CDex 1.70beta2
#
DISCID=c80e840e
DTITLE=Audioslave - Out of Exile
DYEAR=2005
DGENRE=Hard Rock
TTITLE0=Your Time Has Come
TTITLE1=Out of Exile
TTITLE2=Be Yourself
TTITLE3=Doesn't Remind Me
TTITLE4=Drown Me Slowly
TTITLE5=Heaven's Dead
TTITLE6=The Worm
TTITLE7=Man or Animal
TTITLE8=Yesterday to Tomorrow
TTITLE9=Dandelion
TTITLE10=#1 ZERO
TTITLE11=The Curse
TTITLE12=Superstupid
TTITLE13=Like A Stone (Live)
EXTD=YEAR: 2005
EXTT0=
EXTT1=
EXTT2=
EXTT3=
EXTT4=
EXTT5=
EXTT6=
EXTT7=
EXTT8=
EXTT9=
EXTT10=
EXTT11=
EXTT12=
EXTT13=
PLAYORDER=
